# xmcd CD database file
#
# Track frame offsets:
#	150
#	40505
#	63112
#	115707
#	141125
#	172910
#	197092
#	222865
#	250727
#
# Disc length: 4046 seconds
#
# Revision: 0
# Processed by: cddbd v1.4PL0 Copyright (c) Steve Scherf et al.
# Submitted via: CDex 1.40Beta9
#
DISCID=710fcc09
DTITLE=Hans Dulfer - Papa's got a brand new sax
DYEAR=1999
DGENRE=Blues
TTITLE0=Big boy
TTITLE1=Dig!
TTITLE2=Streetfire
TTITLE3=Party pooper
TTITLE4=Grand slam
TTITLE5=Finger poppin' daddies
TTITLE6=Madness
TTITLE7=Hyperbeat
TTITLE8=Streetbeats
EXTD=YEAR: 1999 ID3G: 0
EXTT0=
EXTT1=
EXTT2=
EXTT3=
EXTT4=
EXTT5=
EXTT6=
EXTT7=
EXTT8=
PLAYORDER=
